<svg xmlns="http://www.w3.org/2000/svg" xmlns:xlink="http://www.w3.org/1999/xlink" width="46" zoomAndPan="magnify" viewBox="0 0 34.5 34.5" height="46" preserveAspectRatio="xMidYMid meet" version="1.0"><defs><g/><clipPath id="661c4d29bf"><path d="M 0 0 L 34.007812 0 L 34.007812 34.007812 L 0 34.007812 Z M 0 0 " clip-rule="nonzero"/></clipPath></defs><g clip-path="url(#661c4d29bf)"><path fill="#ffffff" d="M 0 0 L 34.007812 0 L 34.007812 34.007812 L 0 34.007812 Z M 0 0 " fill-opacity="1" fill-rule="nonzero"/><path fill="#ffffff" d="M 0 0 L 34.007812 0 L 34.007812 34.007812 L 0 34.007812 Z M 0 0 " fill-opacity="1" fill-rule="nonzero"/></g><g fill="#000000" fill-opacity="1"><g transform="translate(1.633538, 21.458929)"><g><path d="M 6.859375 -8.6875 C 7.171875 -9.050781 7.472656 -9.320312 7.765625 -9.5 C 8.066406 -9.6875 8.398438 -9.78125 8.765625 -9.78125 C 9.441406 -9.78125 9.9375 -9.550781 10.25 -9.09375 C 10.570312 -8.644531 10.734375 -8.050781 10.734375 -7.3125 L 10.734375 0 L 7.828125 0 L 7.828125 -7.1875 C 7.828125 -7.332031 7.796875 -7.472656 7.734375 -7.609375 C 7.671875 -7.753906 7.550781 -7.828125 7.375 -7.828125 C 7.113281 -7.828125 6.984375 -7.617188 6.984375 -7.203125 L 6.984375 0 L 4.1875 0 L 4.1875 -7.1875 C 4.1875 -7.382812 4.144531 -7.539062 4.0625 -7.65625 C 3.976562 -7.769531 3.875 -7.828125 3.75 -7.828125 C 3.476562 -7.828125 3.34375 -7.617188 3.34375 -7.203125 L 3.34375 0 L 0.4375 0 L 0.4375 -9.546875 L 3.34375 -9.546875 L 3.34375 -8.8125 L 3.375 -8.8125 C 3.457031 -9.039062 3.664062 -9.257812 4 -9.46875 C 4.34375 -9.675781 4.71875 -9.78125 5.125 -9.78125 C 5.507812 -9.78125 5.847656 -9.679688 6.140625 -9.484375 C 6.429688 -9.296875 6.671875 -9.03125 6.859375 -8.6875 Z M 6.859375 -8.6875 "/></g></g></g><g fill="#000000" fill-opacity="1"><g transform="translate(13.189524, 21.458929)"><g><path d="M 3.25 -10.15625 L 0.359375 -10.15625 L 0.359375 -11.625 L 3.25 -11.625 Z M 3.25 0 L 0.359375 0 L 0.359375 -9.546875 L 3.25 -9.546875 Z M 3.25 0 "/></g></g></g><g fill="#000000" fill-opacity="1"><g transform="translate(17.19354, 21.458929)"><g><path d="M 3.78125 -9.78125 C 4.84375 -9.78125 5.644531 -9.5 6.1875 -8.9375 C 6.726562 -8.375 7 -7.648438 7 -6.765625 L 7 -5.90625 L 4.203125 -5.90625 L 4.203125 -7.515625 C 4.203125 -7.703125 4.160156 -7.832031 4.078125 -7.90625 C 4.003906 -7.988281 3.890625 -8.03125 3.734375 -8.03125 C 3.578125 -8.03125 3.457031 -7.988281 3.375 -7.90625 C 3.289062 -7.832031 3.25 -7.703125 3.25 -7.515625 L 3.25 -2.203125 C 3.25 -1.941406 3.289062 -1.757812 3.375 -1.65625 C 3.46875 -1.5625 3.601562 -1.515625 3.78125 -1.515625 C 3.957031 -1.515625 4.085938 -1.570312 4.171875 -1.6875 C 4.253906 -1.8125 4.296875 -2 4.296875 -2.25 L 4.296875 -3.9375 L 7.09375 -3.9375 L 7.09375 -3.390625 C 7.09375 -2.160156 6.820312 -1.242188 6.28125 -0.640625 C 5.738281 -0.046875 4.90625 0.25 3.78125 0.25 C 2.664062 0.25 1.816406 -0.03125 1.234375 -0.59375 C 0.648438 -1.15625 0.359375 -1.90625 0.359375 -2.84375 L 0.359375 -6.6875 C 0.359375 -7.632812 0.65625 -8.382812 1.25 -8.9375 C 1.84375 -9.5 2.6875 -9.78125 3.78125 -9.78125 Z M 3.78125 -9.78125 "/></g></g></g><g fill="#000000" fill-opacity="1"><g transform="translate(24.810789, 21.458929)"><g><path d="M 3.78125 -9.78125 C 4.875 -9.78125 5.71875 -9.5 6.3125 -8.9375 C 6.90625 -8.382812 7.203125 -7.632812 7.203125 -6.6875 L 7.203125 -2.84375 C 7.203125 -1.90625 6.90625 -1.15625 6.3125 -0.59375 C 5.71875 -0.03125 4.875 0.25 3.78125 0.25 C 2.6875 0.25 1.84375 -0.03125 1.25 -0.59375 C 0.65625 -1.15625 0.359375 -1.90625 0.359375 -2.84375 L 0.359375 -6.6875 C 0.359375 -7.632812 0.65625 -8.382812 1.25 -8.9375 C 1.84375 -9.5 2.6875 -9.78125 3.78125 -9.78125 Z M 3.25 -7.421875 L 3.25 -2.3125 C 3.25 -2.132812 3.296875 -1.988281 3.390625 -1.875 C 3.492188 -1.757812 3.625 -1.703125 3.78125 -1.703125 C 3.925781 -1.703125 4.046875 -1.757812 4.140625 -1.875 C 4.242188 -1.988281 4.296875 -2.132812 4.296875 -2.3125 L 4.296875 -7.421875 C 4.296875 -7.597656 4.242188 -7.742188 4.140625 -7.859375 C 4.046875 -7.972656 3.925781 -8.03125 3.78125 -8.03125 C 3.59375 -8.03125 3.457031 -7.960938 3.375 -7.828125 C 3.289062 -7.691406 3.25 -7.554688 3.25 -7.421875 Z M 3.25 -7.421875 "/></g></g></g></svg>